<svg width="48" height="48" xmlns="http://www.w3.org/2000/svg" viewBox="0 0 48 48">
    <defs>
        <linearGradient id="grad" x1="0%" y1="0%" x2="100%" y2="0%" gradientUnits="userSpaceOnUse">
            <stop offset="0%"   stop-color="#2a1ad8"/>
            <stop offset="25%"  stop-color="#4e26e2"/>
            <stop offset="50%"  stop-color="#7231ec"/>
            <stop offset="75%"  stop-color="#953df5"/>
            <stop offset="100%" stop-color="#b948ff"/>
        </linearGradient>
    </defs>
    <rect height="44" width="35" stroke-width="3" stroke="url(#grad)" fill="none" x="2" y="2"
          rx="2" ry="2"
    />
    <!-- x2 => 34   -->
    <!-- x1 => 5    -->
    <!-- cx => 8    -->
    <line x1="5" y1="5" x2="17" y2="5" stroke="url(#grad)" stroke-width="1.5"/>
    <line x1="5" y1="8" x2="17" y2="8" stroke="url(#grad)" stroke-width="1.5"/>
    <line x1="26" y1="5" x2="34" y2="5" stroke="url(#grad)" stroke-width="1.5"/>
    <line x1="26" y1="8" x2="34" y2="8" stroke="url(#grad)" stroke-width="1.5"/>

    <circle r="1.75" cx="8" cy="14.75" fill="none" stroke="url(#grad)" stroke-width="1.5"/>
    <line x1="13" y1="13.25" x2="34" y2="13.25" stroke="url(#grad)" stroke-width="1.5"/>
    <line x1="13" y1="16" x2="34" y2="16" stroke="url(#grad)" stroke-width="1.5"/>

    <circle r="1.75" cx="8" cy="23.25" fill="none" stroke="url(#grad)" stroke-width="1.5"/>
    <line x1="13" y1="21.8" x2="34" y2="21.8" stroke="url(#grad)" stroke-width="1.5"/>
    <line x1="13" y1="24.75" x2="34" y2="24.75" stroke="url(#grad)" stroke-width="1.5"/>


    <circle r="1.75" cx="8" cy="31.75" fill="none" stroke="url(#grad)" stroke-width="1.5"/>
    <line x1="13" y1="30.35" x2="34" y2="30.35" stroke="url(#grad)" stroke-width="1.5"/>
    <line x1="13" y1="33.3" x2="34" y2="33.3" stroke="url(#grad)" stroke-width="1.5"/>
</svg>